<svg width="197" height="41" viewBox="0 0 197 41" fill="none" xmlns="http://www.w3.org/2000/svg">
<path d="M99.87 9.78906V30.4589H91.5924V23.1383H82.1665V30.4589H73.8889V9.78906H82.1665V16.8226H91.5924V9.78906H99.87Z" fill="white"/>
<path d="M122.98 24.2867V30.4589H102.023V9.78906H110.301V24.2867H122.98Z" fill="white"/>
<path d="M63.7452 9.78906V19.7412L54.4629 9.78906H45.7546H42.8359L45.7546 11.99V30.4589H53.6973V19.2149L64.4629 30.4589H71.7357V9.78906H63.7452Z" fill="white"/>
<path d="M160.492 9.11914C165.66 9.11914 171.258 10.9373 171.258 15.6742C171.258 19.2148 168.052 21.3201 163.794 22.5163C161.21 23.234 158.578 24.1909 158.004 24.6215H171.641V30.411H148.674V26.966C149.105 22.7077 152.645 19.3105 158.818 17.6837C161.067 17.1096 162.98 16.6311 162.98 15.8656C162.98 15.1957 161.641 14.7651 160.11 14.7651C157.765 14.7651 155.133 15.722 152.837 17.6837L148.722 13.3297C151.066 10.9852 155.516 9.11914 160.492 9.11914Z" fill="white"/>
<path d="M185.421 9.11914C190.588 9.11914 196.186 10.9373 196.186 15.6742C196.186 19.2148 192.981 21.3201 188.722 22.5163C186.139 23.234 183.507 24.1909 182.933 24.6215H196.569V30.411H173.603V26.966C174.033 22.7077 177.574 19.3105 183.746 17.6837C185.995 17.1096 187.909 16.6311 187.909 15.8656C187.909 15.1957 186.569 14.7651 185.038 14.7651C182.694 14.7651 180.062 15.722 177.765 17.6837L173.65 13.3297C175.995 10.9852 180.445 9.11914 185.421 9.11914Z" fill="white"/>
<path d="M145.181 14.3832L145.947 12.6129L144.128 12.0866C143.554 11.943 143.172 11.4646 142.884 10.7947L142.071 8.59375L140.253 10.077C139.774 10.4598 139.296 10.699 138.817 10.699C138.195 10.699 137.43 10.3641 136.951 9.88562L135.803 8.73729L134.655 9.88562C134.176 10.3641 133.459 10.699 132.789 10.699C132.31 10.699 131.832 10.5076 131.353 10.077L129.535 8.59375L128.722 10.7947C128.482 11.4646 128.052 11.943 127.478 12.0866L125.659 12.6129L126.425 14.3832C126.808 15.1966 126.951 16.0579 126.951 16.9191C126.951 19.3115 125.755 19.8378 125.755 22.5172C125.755 26.3449 128.722 28.833 131.449 29.5507C132.836 29.8856 133.267 29.9335 134.511 30.2205C134.607 30.3162 135.803 31.6081 135.803 31.6081C135.803 31.6081 136.999 30.3162 137.095 30.2205C138.339 29.9335 138.77 29.8856 140.157 29.5507C142.884 28.833 145.851 26.3449 145.851 22.5172C145.851 19.8378 144.607 19.3115 144.607 16.9191C144.655 16.0579 144.846 15.2445 145.181 14.3832Z" fill="black"/>
<path d="M145.564 22.5182C145.564 21.2742 145.277 20.5087 144.99 19.7431C144.655 18.9297 144.368 18.212 144.368 16.9201C144.368 15.9154 144.607 15.0063 144.942 14.2886L145.564 12.8532L144.033 12.4225C143.363 12.2311 142.884 11.7527 142.597 10.9393L141.928 9.12109L140.444 10.3651C139.966 10.7479 139.392 11.035 138.817 11.035C138.004 11.035 137.239 10.6522 136.76 10.1737L135.803 9.21679L134.846 10.1737C134.368 10.6522 133.554 11.035 132.789 11.035C132.215 11.035 131.64 10.7479 131.162 10.3651L129.679 9.12109L129.009 10.9393C128.722 11.7048 128.243 12.2311 127.573 12.4225L126.042 12.8532L126.664 14.2886C126.999 15.0063 127.238 15.9154 127.238 16.9201C127.238 19.4082 126.042 19.8866 126.042 22.5182C126.042 23.3316 126.186 24.0493 126.425 24.767C127.238 27.0637 129.296 28.7383 131.545 29.2646C132.98 29.6474 133.65 29.6474 134.703 29.9345C134.846 30.078 135.803 31.1307 135.803 31.1307C135.803 31.1307 136.808 30.078 136.904 29.9345C137.956 29.6474 138.626 29.5996 140.061 29.2646C142.98 28.5469 145.564 26.011 145.564 22.5182ZM139.918 28.5948C138.387 28.9776 137.334 29.0733 136.569 29.3603C136.473 29.456 135.803 30.1737 135.803 30.1737C135.803 30.1737 135.181 29.456 135.038 29.3603C134.272 29.0733 133.219 28.9776 131.688 28.5948C128.482 27.7814 126.712 25.102 126.712 22.5182C126.712 20.413 127.669 19.6474 127.908 17.6857C127.908 17.4465 127.956 17.2072 127.956 16.968C127.956 14.9584 126.999 13.2838 126.999 13.2838C126.999 13.2838 129.344 13.0924 129.966 10.2694C129.966 10.2694 131.353 11.7048 132.789 11.7048C134.607 11.7048 135.803 10.1259 135.803 10.1259C135.803 10.1259 136.999 11.657 138.817 11.657C140.253 11.657 141.64 10.2216 141.64 10.2216C142.262 13.0445 144.607 13.2359 144.607 13.2359C144.607 13.2359 143.65 14.9106 143.65 16.9201C143.65 19.456 144.846 20.1737 144.846 22.5182C144.894 25.102 143.124 27.7814 139.918 28.5948Z" fill="white"/>
<path d="M144.129 28.7891C143.602 28.7891 143.172 29.2197 143.172 29.746C143.172 30.2723 143.602 30.7029 144.129 30.7029C144.655 30.7029 145.086 30.2723 145.086 29.746C145.086 29.2197 144.655 28.7891 144.129 28.7891ZM144.129 30.5594C143.698 30.5594 143.363 30.2245 143.363 29.7938C143.363 29.3632 143.698 29.0283 144.129 29.0283C144.559 29.0283 144.894 29.3632 144.894 29.7938C144.894 30.1766 144.559 30.5594 144.129 30.5594Z" fill="white"/>
<path d="M144.511 29.5517C144.511 29.3603 144.368 29.2168 144.176 29.2168H143.698V30.3173H143.889V29.8867H144.033L144.224 30.3173H144.463L144.224 29.8388C144.416 29.791 144.511 29.6953 144.511 29.5517ZM144.176 29.6474H143.937V29.4082H144.176C144.224 29.4082 144.32 29.456 144.32 29.5517C144.32 29.5996 144.272 29.6474 144.176 29.6474Z" fill="white"/>
<path d="M133.028 22.7106L131.832 20.8446L130.492 21.8493C130.492 21.8493 130.971 21.8493 130.971 22.3757V25.8685L131.928 25.1508V22.6627L133.028 24.3374L134.033 23.5718V19.1699L133.076 19.8876V22.7106H133.028Z" fill="white"/>
<path d="M136.904 18.5955L135.803 19.4089V17.7821L134.368 18.8826C134.368 18.8826 134.846 18.8826 134.846 19.4089V22.9017L135.851 22.184V20.605L136.951 19.7916V21.4184L137.908 20.7007V16.2988L136.951 17.0165V18.5955H136.904Z" fill="white"/>
<path d="M139.679 18.2145V14.9609L138.243 16.0614C138.243 16.0614 138.722 16.0614 138.722 16.5877V20.0806L141.449 18.0231C141.401 17.3054 141.449 16.9227 141.449 16.9227L139.679 18.2145Z" fill="white"/>
<path d="M142.98 16.9193C142.98 15.1012 143.65 13.7136 143.65 13.7136C143.65 13.7136 142.071 13.3787 141.306 11.3691C141.306 11.3691 140.253 12.3739 138.818 12.3739C136.999 12.3739 135.803 11.082 135.803 11.082C135.803 11.082 134.607 12.3739 132.789 12.3739C131.353 12.3739 130.301 11.3691 130.301 11.3691C129.583 13.3787 127.956 13.7136 127.956 13.7136C127.956 13.7136 128.626 15.1012 128.626 16.9193C128.626 19.5988 127.43 20.4122 127.43 22.5174C127.43 25.4839 129.727 27.3978 131.88 27.9241C133.554 28.3548 134.703 28.4026 135.42 28.7854C135.42 28.7854 135.707 29.0246 135.803 29.1682C135.899 29.0725 136.186 28.7854 136.186 28.7854C136.952 28.4026 138.052 28.3548 139.727 27.9241C141.88 27.3978 144.176 25.4839 144.176 22.5174C144.176 20.4122 142.98 19.6466 142.98 16.9193ZM129.439 16.9193C129.439 15.771 129.2 14.7662 128.961 14.1442C129.439 13.8571 130.109 13.3787 130.588 12.5653C131.114 12.8524 131.88 13.1873 132.789 13.1873C134.129 13.1873 135.229 12.6131 135.803 12.1347C136.425 12.5653 137.478 13.1873 138.818 13.1873C139.057 13.1873 139.248 13.1873 139.44 13.1394L128.339 21.4648C128.674 20.1729 129.439 19.1682 129.439 16.9193ZM130.923 26.728C129.487 26.0103 128.243 24.5748 128.195 22.661L141.258 12.8524C141.736 13.4744 142.215 13.8571 142.645 14.0964C142.406 14.7184 142.167 15.7232 142.167 16.8715C142.167 17.35 142.215 17.7806 142.263 18.1634L130.923 26.728ZM139.535 27.1586C138.196 27.4935 136.569 27.6849 136.042 27.972C135.947 28.0677 135.803 28.2112 135.803 28.2112C135.803 28.2112 135.66 28.0677 135.564 27.972C135.085 27.6849 133.411 27.4935 132.071 27.1586C132.023 27.1586 131.975 27.1107 131.928 27.1107L142.502 19.1681C142.885 20.4122 143.411 21.2734 143.411 22.5174C143.411 25.0533 141.401 26.6801 139.535 27.1586Z" fill="white"/>
<path d="M20.3952 40.1211C31.441 40.1211 40.3954 31.1668 40.3954 20.1211C40.3954 9.0754 31.441 0.121094 20.3952 0.121094C9.34941 0.121094 0.39502 9.0754 0.39502 20.1211C0.39502 31.1668 9.34941 40.1211 20.3952 40.1211Z" fill="white"/>
<path d="M33.5531 23.3267H34.0794V23.4224H33.888V23.8531H33.7923V23.4224H33.6009V23.3267H33.5531ZM9.67728 25.3363H8.52896C8.28972 25.3363 8.14616 25.1928 8.14616 24.9057V24.4751C8.14616 24.3315 8.19401 24.2358 8.24186 24.1401C8.2897 24.0445 8.38542 23.9966 8.52896 23.9966H9.43804C9.62943 23.9966 9.77298 24.0923 9.86868 24.3315L10.0122 24.7622H10.8256V24.2837C10.8256 23.9488 10.7299 23.7095 10.4907 23.4703C10.2515 23.2789 10.0122 23.1354 9.67728 23.1354H8.33756C8.00263 23.1354 7.76338 23.2311 7.52415 23.4703C7.28491 23.7095 7.18921 23.9488 7.18921 24.2837V25.0492C7.18921 25.3842 7.28491 25.6234 7.52415 25.8626C7.76338 26.1019 8.00263 26.1976 8.33756 26.1976H9.4859C9.72514 26.1976 9.86868 26.3411 9.86868 26.6282V27.2023C9.86868 27.3459 9.82082 27.4416 9.77298 27.5373C9.67728 27.633 9.62945 27.6808 9.4859 27.6808H8.57679C8.33756 27.6808 8.194 27.5851 8.14616 27.3937L8.00262 26.9153H7.18921V27.4416C7.18921 27.7765 7.28491 28.0157 7.52415 28.255C7.71554 28.4464 8.00263 28.5899 8.33756 28.5899H9.67728C10.0122 28.5899 10.2515 28.4942 10.4907 28.255C10.7299 28.0157 10.8256 27.7765 10.8256 27.4416V26.4846C10.8256 26.1497 10.7299 25.9105 10.4907 25.6712C10.2515 25.432 9.96436 25.3363 9.67728 25.3363ZM15.1797 23.4703C15.419 23.7095 15.5147 23.9488 15.5147 24.2837V25.432C15.5147 25.7669 15.419 26.0062 15.1797 26.2454C14.9405 26.4846 14.7012 26.5803 14.3663 26.5803H12.8831V28.5421H11.9261V23.1354H14.3663C14.7012 23.1354 14.9883 23.2789 15.1797 23.4703ZM14.5577 24.4751C14.5577 24.3315 14.5099 24.2358 14.462 24.1401C14.4142 24.0445 14.3185 23.9966 14.1749 23.9966H12.8831V25.6712H14.1749C14.2706 25.6712 14.3663 25.6234 14.462 25.5277C14.5099 25.432 14.5577 25.3363 14.5577 25.1928V24.4751V24.4751ZM24.0793 26.3411L25.0363 28.5899H24.0315L23.1702 26.4846H22.2611V28.5899H21.3042V23.1354H23.6965C24.0315 23.1354 24.2707 23.2311 24.5099 23.4703C24.7492 23.7095 24.8449 23.9488 24.8449 24.2837V25.2406C24.8449 25.4799 24.797 25.7191 24.6535 25.9105C24.4621 26.1019 24.2707 26.2454 24.0793 26.3411ZM23.8401 24.4751C23.8401 24.3315 23.7923 24.2358 23.7444 24.1401C23.6966 24.0445 23.6008 23.9966 23.4573 23.9966H22.2133V25.5277H23.4573C23.553 25.5277 23.6487 25.4799 23.7444 25.3842C23.7923 25.2885 23.8401 25.1928 23.8401 25.0492V24.4751ZM25.4191 24.0444H26.8066V28.5899H27.7636V24.0444H29.1511V23.1354H25.4191V24.0444ZM32.3091 25.3363H31.1607C30.9215 25.3363 30.778 25.1928 30.778 24.9057V24.4751C30.778 24.3315 30.8258 24.2358 30.8736 24.1401C30.9215 24.0445 31.0172 23.9966 31.1607 23.9966H32.0698C32.2612 23.9966 32.4048 24.0923 32.5005 24.3315L32.644 24.7622H33.4574V24.2837C33.4574 23.9488 33.3617 23.7095 33.1225 23.4703C32.8832 23.2789 32.644 23.1354 32.3091 23.1354H30.9693C30.6344 23.1354 30.3952 23.2311 30.1559 23.4703C29.9167 23.7095 29.821 23.9488 29.821 24.2837V25.0492C29.821 25.3842 29.9167 25.6234 30.1559 25.8626C30.3952 26.1019 30.6344 26.1976 30.9693 26.1976H32.1177C32.3569 26.1976 32.5005 26.3411 32.5005 26.6282V27.2023C32.5005 27.3459 32.4526 27.4416 32.4048 27.5373C32.3569 27.633 32.2612 27.6808 32.1177 27.6808H31.2086C30.9693 27.6808 30.8258 27.5851 30.778 27.3937L30.6344 26.9153H29.821V27.4416C29.821 27.7765 29.9167 28.0157 30.1559 28.255C30.3952 28.4464 30.6344 28.5899 30.9693 28.5899H32.3091C32.644 28.5899 32.8832 28.4942 33.1225 28.255C33.3617 28.0157 33.4574 27.7765 33.4574 27.4416V26.4846C33.4574 26.1497 33.3617 25.9105 33.1225 25.6712C32.8832 25.432 32.644 25.3363 32.3091 25.3363ZM34.6536 23.3267L34.4622 23.6617L34.2708 23.3267H34.1751V23.8531H34.2708V23.5181V23.4703C34.2708 23.4703 34.2708 23.5181 34.3187 23.5181L34.5101 23.7574L34.6536 23.5181C34.6536 23.5181 34.6536 23.4703 34.7014 23.4703C34.7014 23.5181 34.7014 23.5181 34.7014 23.5181V23.8531H34.7971V23.3267H34.6536ZM19.7731 23.4703C20.0123 23.7095 20.108 23.9488 20.108 24.2837V27.3937C20.108 27.7287 20.0123 28.0157 19.7731 28.2071C19.5338 28.4464 19.2946 28.5421 18.9597 28.5421H17.6678C17.3329 28.5421 17.0936 28.4464 16.8544 28.2071C16.6151 27.9679 16.5194 27.7287 16.5194 27.3937V24.2837C16.5194 23.9966 16.6151 23.7095 16.8544 23.4703C17.0936 23.2311 17.3329 23.1354 17.6678 23.1354H18.9597C19.2946 23.1354 19.5338 23.2789 19.7731 23.4703ZM19.151 24.4751C19.151 24.3315 19.1032 24.2358 19.0554 24.1401C19.0075 24.0445 18.9118 23.9966 18.7683 23.9966H17.8592C17.7635 23.9966 17.6678 24.0445 17.5721 24.1401C17.5242 24.2358 17.4764 24.3315 17.4764 24.4751V27.2502C17.4764 27.3937 17.5242 27.4894 17.5721 27.5851C17.6678 27.6808 17.7156 27.7287 17.8592 27.7287H18.7683C18.864 27.7287 18.9597 27.6808 19.0554 27.5851C19.1511 27.4894 19.151 27.3937 19.151 27.2502V24.4751ZM23.1702 9.35546H12.8831L11.3041 11.8435H21.5913L23.1702 9.35546ZM27.0937 16.8674H25.5626L23.9836 19.3555H28.6727L30.2516 21.8435H33.266L25.2755 9.25977L18.864 19.3555H11.9261L13.5529 16.8674H17.907L19.486 14.3794H9.82081L8.24186 16.8674H10.5864L7.42845 21.8913H20.4429L25.3712 14.0445L27.0937 16.8674Z" fill="black"/>
</svg>
